<svg width="15" height="14" viewBox="0 0 15 14" fill="none" xmlns="http://www.w3.org/2000/svg">
<g id="ic:round-star-outline" clip-path="url(#clip0_6_285)">
<path id="Vector" d="M13.42 4.83195L9.54802 4.49595L8.03602 0.935951C7.76402 0.287951 6.83602 0.287951 6.56402 0.935951L5.05202 4.50395L1.18802 4.83195C0.484019 4.88795 0.196018 5.76795 0.732018 6.23195L3.66802 8.77595L2.78802 12.552C2.62802 13.24 3.37202 13.784 3.98002 13.416L7.30002 11.416L10.62 13.424C11.228 13.792 11.972 13.248 11.812 12.56L10.932 8.77595L13.868 6.23195C14.404 5.76795 14.124 4.88795 13.42 4.83195ZM7.30002 9.91995L4.29202 11.736L5.09202 8.31195L2.43602 6.00795L5.94002 5.70395L7.30002 2.47995L8.66802 5.71195L12.172 6.01595L9.51602 8.31995L10.316 11.744L7.30002 9.91995Z" fill="#ECECEC"/>
</g>
<defs>
<clipPath id="clip0_6_285">
<rect width="14.4" height="13.8" fill="white" transform="translate(0.100021)"/>
</clipPath>
</defs>
</svg>
